<svg width="16" height="10" viewBox="0 0 16 10" fill="none" xmlns="http://www.w3.org/2000/svg">
<path d="M10.9413 0.117083L11.0117 0.176233L15.6007 4.64147L15.3151 4.93481C15.256 5.12338 15.109 5.27327 14.9219 5.33671L11.0222 9.31336C10.7823 9.55814 10.3887 9.56274 10.1432 9.32365C9.9199 9.10628 9.89578 8.76234 10.0735 8.5177L10.1328 8.44751L13.1497 5.36957L0.621901 5.37612C0.278594 5.37628 0.000160103 5.09902 6.90163e-08 4.75684C-0.000146629 4.44318 0.233585 4.18385 0.536975 4.14268L0.621321 4.13699L13.2964 4.13126L10.1433 1.0629C9.91996 0.845599 9.89575 0.501664 10.0734 0.256969L10.1327 0.186764C10.3265 -0.0110912 10.6207 -0.0521424 10.8561 0.0655175L10.9413 0.117083Z" fill="#2998FF"/>
</svg>
