<svg width="19" height="14" viewBox="0 0 19 14" fill="none" xmlns="http://www.w3.org/2000/svg">
<path d="M5.7988 13.5836L5.7139 13.4996L0.177 7.15423L0.5217 6.73738C0.593 6.46941 0.770399 6.25641 0.996099 6.16626L5.7013 0.5152C5.9907 0.1674 6.4655 0.1608 6.7618 0.5006C7.0312 0.8095 7.0603 1.2983 6.8459 1.6459L6.7743 1.7456L3.1343 6.11957L18.2497 6.11026C18.6639 6.11003 18.9998 6.50403 19 6.99028C19.0002 7.43601 18.7182 7.80453 18.3521 7.86303L18.2503 7.87112L2.9573 7.87926L6.7617 12.2396C7.0311 12.5484 7.0604 13.0371 6.846 13.3848L6.7744 13.4846C6.5406 13.7658 6.1857 13.8241 5.9017 13.6569L5.7988 13.5836Z" fill="white"/>
</svg>
