<svg width="19" height="14" viewBox="0 0 19 14" fill="none" xmlns="http://www.w3.org/2000/svg">
<path d="M13.2012 0.416381L13.2861 0.500436L18.823 6.84577L18.4783 7.26262C18.407 7.53059 18.2296 7.74359 18.0039 7.83374L13.2987 13.4848C13.0093 13.8326 12.5345 13.8392 12.2382 13.4994C11.9688 13.1905 11.9397 12.7017 12.1541 12.3541L12.2257 12.2544L15.8657 7.88043L0.75035 7.88974C0.336136 7.88997 0.000193171 7.49597 8.32711e-08 7.00972C-0.000176914 6.56399 0.281831 6.19547 0.647883 6.13697L0.74965 6.12888L16.0427 6.12074L12.2383 1.76043C11.9689 1.45164 11.9396 0.96289 12.154 0.615167L12.2256 0.515402C12.4594 0.234239 12.8143 0.175903 13.0983 0.343104L13.2012 0.416381Z" fill="white"/>
</svg>
