<svg width="19" height="12" viewBox="0 0 19 12" fill="none" xmlns="http://www.w3.org/2000/svg">
<path d="M13.2447 0.141732L13.33 0.213334L18.8851 5.61862L18.5393 5.97371C18.4678 6.20199 18.2898 6.38343 18.0633 6.46022L13.3426 11.2741C13.0523 11.5704 12.5758 11.576 12.2786 11.2865C12.0083 11.0234 11.9791 10.607 12.1942 10.3109L12.2661 10.2259L15.9181 6.5L0.752827 6.50793C0.337246 6.50812 0.000193809 6.17249 8.3546e-08 5.75828C-0.000177498 5.37858 0.282761 5.06466 0.650022 5.01482L0.752125 5.00793L16.0957 5.001L12.2787 1.28667C12.0084 1.02362 11.9791 0.607277 12.1941 0.311068L12.2659 0.226083C12.5005 -0.0134262 12.8566 -0.0631197 13.1416 0.0793106L13.2447 0.141732Z" fill="#2998FF"/>
</svg>
