<svg xmlns="http://www.w3.org/2000/svg" width="19" height="12" viewBox="0 0 19 12">
    <g fill="none" fill-rule="evenodd">
        <g fill="#2998FF" fill-rule="nonzero">
            <g>
                <path d="M13.325 21.148l.086.075L19 26.863l-.348.37c-.072.239-.25.428-.479.508l-4.75 5.023c-.291.31-.77.315-1.07.013-.272-.274-.301-.709-.085-1.018l.073-.088 3.674-3.888-15.258.008c-.418 0-.757-.35-.757-.782 0-.397.284-.724.654-.776l.103-.007 15.437-.008-3.84-3.875c-.273-.275-.302-.71-.086-1.018l.073-.09c.236-.249.594-.3.88-.152l.104.065z" transform="translate(-339 -182) translate(339 161) matrix(-1 0 0 1 19 0)"/>
            </g>
        </g>
    </g>
</svg>
