<svg xmlns="http://www.w3.org/2000/svg" xmlns:xlink="http://www.w3.org/1999/xlink" width="23" height="12" viewBox="0 0 23 12">
    <defs>
        <filter id="rweqgrm1sa" width="109.8%" height="106.3%" x="-4.9%" y="-3.3%" filterUnits="objectBoundingBox">
            <feOffset dy="-1" in="SourceAlpha" result="shadowOffsetOuter1"/>
            <feGaussianBlur in="shadowOffsetOuter1" result="shadowBlurOuter1" stdDeviation="7"/>
            <feColorMatrix in="shadowBlurOuter1" values="0 0 0 0 0 0 0 0 0 0 0 0 0 0 0 0 0 0 0.151496941 0"/>
        </filter>
        <rect id="m32mb032fb" width="440" height="679" x="0" y="0" rx="10"/>
    </defs>
    <g fill="none" fill-rule="evenodd">
        <g>
            <g>
                <g>
                    <g transform="translate(-1235 -722) translate(1102 231)">
                        <use fill="#000" filter="url(#rweqgrm1sa)" xlink:href="#m32mb032fb"/>
                        <use fill="#FFF" xlink:href="#m32mb032fb"/>
                    </g>
                </g>
                <g>
                    <text font-family="Inter-Regular, Inter" font-size="18" transform="translate(-1235 -722) translate(1102 231) translate(21 480)">
                        <tspan x="0" y="17" fill="#2B3755">Resume </tspan> <tspan x="72.946" y="17" fill="#E02020">*</tspan> <tspan x="81.946" y="17" fill="#2B3755"> </tspan>
                    </text>
                    <g>
                        <path d="M0 0L24 0 24 24 0 24z" transform="translate(-1235 -722) translate(1102 231) translate(21 480) translate(111 5)"/>
                        <path fill="#2998FF" fill-rule="nonzero" d="M17.75 16H7.17c-2.09 0-3.95-1.53-4.15-3.61C2.79 10.01 4.66 8 7 8h12.36c1.31 0 2.5.94 2.63 2.24.15 1.5-1.02 2.76-2.49 2.76H9c-.55 0-1-.45-1-1s.45-1 1-1h8.75c.41 0 .75-.34.75-.75s-.34-.75-.75-.75H9.14c-1.31 0-2.5.94-2.63 2.24-.15 1.5 1.02 2.76 2.49 2.76h10.33c2.09 0 3.95-1.53 4.15-3.61.23-2.39-1.64-4.39-3.98-4.39H7.23c-2.87 0-5.44 2.1-5.71 4.96-.3 3.29 2.26 6.04 5.48 6.04h10.75c.41 0 .75-.34.75-.75s-.34-.75-.75-.75z" transform="translate(-1235 -722) translate(1102 231) translate(21 480) translate(111 5)"/>
                    </g>
                </g>
            </g>
        </g>
    </g>
</svg>
