<svg width="19" height="13" viewBox="0 0 19 13" fill="none" xmlns="http://www.w3.org/2000/svg">
<path d="M13.2012 0.891732L13.2861 0.963334L18.823 6.36862L18.4783 6.72371C18.407 6.95199 18.2296 7.13343 18.0039 7.21022L13.2987 12.0241C13.0093 12.3204 12.5345 12.326 12.2382 12.0365C11.9688 11.7734 11.9397 11.357 12.1541 11.0609L12.2257 10.9759L15.8657 7.25L0.75035 7.25793C0.336136 7.25812 0.000193171 6.92249 8.32711e-08 6.50828C-0.000176914 6.12858 0.281831 5.81466 0.647883 5.76482L0.74965 5.75793L16.0427 5.751L12.2383 2.03667C11.9689 1.77362 11.9396 1.35728 12.154 1.06107L12.2256 0.976083C12.4594 0.736574 12.8143 0.68688 13.0983 0.829311L13.2012 0.891732Z" fill="#000"/>
</svg>
